<svg width="203" height="132" fill="none" xmlns="http://www.w3.org/2000/svg"><g clip-path="url(#clip0)"><path fill-rule="evenodd" clip-rule="evenodd" d="M60.244 4.189l.034-.017c.017-.008.03-.015.044-.02l.046-.016c.05-.018.1-.035.153-.045l.084-.02.013-.001c.072-.01.22.007.31.02l.05.01c.093.018.187.036.274.068.062.024.096.034.118.04l.056.034.02.012.085.047c.123.069.244.136.363.209.084.05.07.03.062.022.01.009.045.043.159.141.3.259.58.535.837.83.016.023.043.058.073.096v.002h.001c.052.068.11.145.134.18l.069.1c.085.127.17.252.248.38a11.056 11.056 0 01.411.75l.022.046c.006.015.01.02.014.028l.02.056c.137.35.243.704.34 1.066.01.037.029.15.045.25v.002l.028.159.004.044c.011.136.022.27.022.407 0 .15-.012.302-.026.452l-.004.017a2.562 2.562 0 01-.06.228c-.089.275-.106.314-.25.512-.077.108-.113.153-.404.297-.098.05-.142.074-.156.085l-.01.003-.008.002-.04.014a5.01 5.01 0 01-.807.19c-.154.024-1.139.008-1.637-.024l-.148-.008h-.001c-.515-.03-1.113-.063-1.476-.424-.807-.8-.07-2.15.752-2.71 1.37-.933.902-2.718-.177-3.315L60 4.33l.044-.037c-.011.003-.064.018.2-.105zm-5.042 5.555v.109c0 .056 0 .111.005.169.204 2.127 1.815 3.836 3.993 4.314 2.941.647 6.87.26 8.398-2.581C69.846 7.573 65.96.55 60.89.393c-4.062-.126-5.94 4.13-6.782 7.245-.276 1.021.306 1.78 1.093 2.106zm9.262 11.033c8.408-1.624 10.181 10.234 11.186 16.952.114.76.218 1.454.32 2.056.119.698.608 1.078 1.182 1.197-6.31.261-12.615.627-18.91 1.094-1.377-7.922-3.223-19.475 6.222-21.3zM36.458 47.593a534.698 534.698 0 0118.811-1.818c.003.028.007.057.012.085.295 2.18 3.881 2.21 3.581 0l-.034-.24-.018-.121c13.606-.998 27.253-1.506 40.887-1.585 17.189-.097 34.298 1.206 51.412 2.51h.014c5.298.404 10.597.807 15.898 1.17 2.3.156 2.29-3.31 0-3.467a2054 2054 0 01-15.873-1.168c-17.127-1.304-34.249-2.608-51.451-2.51-7.185.041-14.375.21-21.559.496.73-.2 1.359-.77 1.35-1.621-.007-.728-.073-1.579-.143-2.492v-.001c-.32-4.19-.743-9.697 3.838-10.768 7.5-1.754 11.02 5.888 12.834 11.447.587 1.799 3.605 1.566 3.518-.46-.143-3.365.748-9.043 5.47-8.757 4.454.269 5.135 5.443 4.734 8.758-.25 2.069 2.866 2.155 3.518.46.31-.806.547-1.768.793-2.77.785-3.19 1.668-6.778 5.318-6.982 5.691-.316 8.428 6.2 8.564 10.755.059 1.963 2.909 2.337 3.519.46.348-1.07.615-2.544.911-4.17.873-4.803 1.987-10.935 6.114-11.939 3.997-.973 7.035 2.46 7.654 5.856.541 2.97.099 6.066-.326 9.045-.046.326-.093.65-.137.971-.304 2.181 3.148 3.126 3.453.922.392-2.814.765-6.192.544-9.38.518-.324 1.437-.504 2.281-.67.554-.108 1.076-.21 1.431-.343 1.158-.431 2.229-.965 3.2-1.716 1.901-1.474 3.151-3.583 4.355-5.614.131-.222.262-.443.394-.662 1.158-1.934-1.937-3.68-3.095-1.75-.161.27-.321.543-.482.82-1.203 2.06-2.466 4.223-4.711 5.306-.607.293-1.417.489-2.263.694-.549.133-1.113.27-1.647.438-1.036-4.023-3.605-7.155-9.208-7.458-6.678-.36-8.866 5.886-10.257 11.792-1.809-3.627-4.926-6.516-9.34-6.802-4.715-.305-6.799 2.153-8.153 5.346-1.297-2.687-3.629-4.726-7.164-4.833-4.217-.13-6.77 2.484-8.048 5.792-2.769-5.091-7.075-9.104-13.847-8.052-3.416.532-5.265 2.256-6.253 4.535-2-5.908-5.545-10.906-12.59-9.804-6.206.97-8.951 4.725-9.967 9.44-4.044-1.42-7.205-4.144-10.393-6.89-.48-.413-.959-.826-1.442-1.235-1.728-1.463-4.271.978-2.533 2.45.429.364.855.728 1.28 1.092h.001c3.858 3.3 7.654 6.546 12.636 8.098-.23 4.002.357 8.33.917 12.095a530.431 530.431 0 00-18.308 1.779c-2.26.26-2.287 3.73 0 3.466zm50.495-32.632c-.025-.004-.158-.463-.129-.408-.183-.336-.59-.666-.82-.76a1.758 1.758 0 00-.148-.052l-.071-.023c-.078 1.198-1.34 2.337-2.684 1.524a6.997 6.997 0 01-.381-.256l-.048.055-.022.027-.015.018-.006.022c-.036.15-.072.301-.083.455-.043.531.045.821.316.953.702.341 1.875-.015 2.614-.27.39-.136.778-.308 1.108-.563a.769.769 0 00.223-.27 1.45 1.45 0 01.121-.187c.006-.009.04-.101.022-.06-.042.104-.03.028-.015-.07a2.21 2.21 0 00.018-.135zm3.618-.213c.174 2.406-1.742 4.09-3.85 4.857-2.373.863-5.591 1.042-7.119-1.357-1.382-2.168-.492-4.982.864-6.929.335-.482.919-.961 1.565-.887.268.03.513.075.75.134 1.298-.569 2.746-.73 4.19-.23 1.926.669 3.452 2.36 3.6 4.412zm14.009.241l.093.02c.066.012.137.027.159.034.052.015.073.018.085.015.018.014.041.03.069.048l.007.005.023.022a.493.493 0 01.02.017l.013.012.002.004c.004.01.01.027.025.051a.84.84 0 01.067.236c.006.034.012.066.019.095-.072-.298-.062-.09-.05.152.005.101.01.209.01.286a2.035 2.035 0 01-.024.126c-.028.091-.054.183-.08.275v.001c-.022.08-.044.16-.068.239a2.37 2.37 0 01-.08.21v.001l-.018.046c-.01.02-.026.052-.042.088-.036.074-.079.164-.096.195a9.483 9.483 0 01-.536.826l-.009.009-.018.017-.018.018a1.915 1.915 0 01-.529.494l-.016.014-.084.052c-.076.05-.172.11-.21.128a1.86 1.86 0 00-.099.047h-.001l-.059.029a1.885 1.885 0 01-.105.038l-.005-.001.011-.004c.009-.003.018-.006.032-.013h.004v-.001c.066-.025.092-.034.091-.035l-.029.005c-.035.008-.097.023-.158.03a.448.448 0 00-.09-.026l-.027-.014-.018-.01a1.936 1.936 0 01-.104-.056l.042.05h-.006l-.001-.002a3.009 3.009 0 00-.109-.12c-.041-.045-.222-.229-.202-.195-.262-.309-.596-.761-.61-1.152-.019-.515.434-.95.798-1.301l.033-.032.054-.052c.271-.265.418-.553.479-.84a4.56 4.56 0 011.365-.08zm-1.601 3.867l.002.001c-.017.006-.018.006-.002-.001zm-.202-.089l.006.003c.052.067.04.053-.006-.003zm-4.469-.562c.322 1.304 1.255 2.636 2.463 3.392 1.472.922 3.33.781 4.757-.145 2.607-1.693 4.674-6.029 2.242-8.577-1.725-1.808-4.614-1.429-6.821-.764-.982.295-1.35 1.097-1.263 1.848-1.074 1.196-1.777 2.63-1.378 4.246zm21.624.145c.31.162.744.151 1.169.051.956-.221 1.45-1.128 1.293-1.697-.083-.305-.132-.451-.343-.555a.257.257 0 00-.061-.017.374.374 0 01-.048-.012c-.531.675-1.432 1.011-2.216.518a3.373 3.373 0 00-.054 1.017c.015.135.073.452.157.627-.051-.105.1.038.103.068zm5.98-2.845c.703 2.405-.53 5.005-2.724 6.111-2.461 1.242-5.789.596-6.85-2.143-.883-2.28-.111-5.014 1.149-6.996.542-.854 1.642-1.19 2.534-.67.312.182.556.383.785.596 2.207-.23 4.411.726 5.106 3.102zm19.335-5.672c-.015-.014-.013-.019 0-.013.002.004 0 .009 0 .013zm-1.13 3.07c-.11.174-.226.345-.346.513l-.029.04-.017.022c-.026.034-.052.068-.075.103l-.023.032-.004.004c-.096.1-.187.203-.279.306-.146.165-.293.33-.454.483a4.04 4.04 0 01-.197.172c-.058.049-.116.098-.172.15a1.615 1.615 0 00-.132.085 1.63 1.63 0 01-.115.076 2.653 2.653 0 01-.14.074 2.392 2.392 0 00-.151.079l-.021.008a.57.57 0 01-.105.032l-.006.002h-.007l-.004-.003c-.032-.032-.051-.048-.07-.064l-.003-.004-.001-.005h-.001a16.045 16.045 0 00-.116-.212h-.001l-.141-.257c.009.002-.037-.112-.088-.24a5.09 5.09 0 01-.118-.31 9.417 9.417 0 01-.245-1.006 6.513 6.513 0 01-.066-1.844c.37.182.805.246 1.265.105.181.106.362.216.538.329.831.53 1.634.288 2.146-.258l-.02.052h-.001c-.029.076-.058.151-.083.228-.031.059-.059.119-.087.179a10.896 10.896 0 01-.631 1.13zm-1.494 5.68c2.118-.425 3.758-2.367 4.802-4.089 1.003-1.653 1.964-3.93 1.309-5.864-.997-2.942-4.183-2.32-6.571-1.306-1.065-.286-2.172-.275-3.154.364-2.016 1.316-1.896 4.205-1.495 6.247.485 2.477 2.094 5.254 5.109 4.649zm-17.221 59.764c-.452 3.592 4.456 8.336 6.968 3.872 1.108-1.965 4.256-.218 3.151 1.745-3.351 5.949-9.951 3.568-12.617-1.06-1.464 3.76-5.035 6.234-10.562 3.912-2.144-.9-.285-3.877 1.842-2.985 7.846 3.297 8.418-13.037-.436-11.088-2.286.504-3.256-2.83-.97-3.332 5.455-1.201 8.801 1.526 10.17 5.215 2.131-4.197 6.637-8.569 9.434-3.217 1.04 1.989-2.108 3.738-3.149 1.744a2.774 2.774 0 01-.244-.604c-.017-.06-.025-.089-.043-.096-.017-.007-.043.008-.095.037a2.33 2.33 0 01-.163.087c-.561.267-1.043 1.042-1.396 1.61l-.154.244c-.739 1.151-1.565 2.554-1.736 3.916zm26.513-8.703c-1.336 3.398-2.918 6.64-4.688 9.781-2.223-2.293-3.626-5.257-4.999-8.16-.301-.636-.601-1.269-.907-1.891-1.034-2.1-4.164-.258-3.131 1.839.285.578.565 1.165.847 1.753 1.674 3.498 3.39 7.082 6.294 9.68a102.46 102.46 0 01-2.673 4.099c-.066.096-.152.225-.257.381-.938 1.398-3.301 4.918-4.778 5.737-.295-.615-.922-1.056-1.632-1.056h-.981c-1.406 0-2.219 1.537-1.566 2.74 5.985 11.031 20.771-20.887 21.969-23.935.857-2.181-2.65-3.127-3.498-.968zm-144.974 13c2.788 1.147 7.261.176 9.175-2.205 3.898-4.847-4.992-7.998-10.041-8.56-1.588 1.13-2.187 4.092-2.209 5.819-.026 2.19.975 4.082 3.075 4.946zm-.913-14.687c.527-.107.98.003 1.342.233 4.105.443 8.486 2.341 11.119 5.093 3.709 3.878 2.07 9.229-2.338 11.715-4.576 2.58-11.591 2.557-14.644-2.356-1.898-3.055-1.647-8.561.642-11.929-.242-1.007.314-2.346 1.66-2.52.55-.071 1.121-.1 1.702-.103.169-.052.341-.097.517-.133zm78.284 14.955c-2.886.206-6.96.08-8.55-2.917-1.786-3.369.222-8.884 4.41-8.192 2.228.368 3.187-3.117.94-3.487-5.636-.932-9.366 3.32-9.463 8.632-.107.048-.215.11-.322.187-.659.481-1.295.991-1.898 1.53.088-1.729.242-3.455.397-5.183.078-.87.155-1.74.225-2.612.183-2.32-3.352-2.306-3.54 0-.147 1.812-1.252 3.51-2.63 4.736-1.42-4.644-7.666-9.745-12.042-6.84-1.902 1.265-.131 4.398 1.787 3.124 2.599-1.726 6.869 3.168 7.017 5.636.265 4.368-5.04 6.055-8.44 5.55-2.23-.332-3.191 3.152-.943 3.487 5.016.743 11.333-1.497 12.677-6.655.113-.041.229-.092.344-.16a12.235 12.235 0 001.613-1.149c-.09 1.734-.117 3.47-.006 5.215.106 1.642 2.472 2.65 3.298.913.74-1.555 1.825-2.776 3.113-3.834 1.826 4.646 7.36 5.967 12.013 5.636 2.26-.162 2.278-3.78 0-3.617zm-45.694-11.09c-1.968-.395-4.104-.823-5.709.172-.014 2.438-.088 4.86-.344 7.279.866-.054 1.732-.114 2.599-.174h.002c1.126-.077 2.252-.155 3.378-.22-.11-1.744.02-3.466.15-5.198.044-.605.09-1.21.125-1.819l-.201-.04zm3.482 6.913c.794-.011 1.59-.01 2.385.012.996.03 1.775.813 1.8 1.812.013.498.04 1.001.066 1.507.12 2.243.24 4.525-.866 6.539-1.122 2.045-4.23.214-3.109-1.828.665-1.21.566-2.878.435-4.416-2.548.01-5.09.187-7.63.363h-.001c-2.417.167-4.834.335-7.257.36.083.798.144 1.598.205 2.4.077 1.015.154 2.03.276 3.046.28 2.314-3.324 2.287-3.6 0a54.307 54.307 0 01-.235-2.72c-.095-1.362-.19-2.724-.439-4.07-.205-1.112.483-2.33 1.736-2.293 1.032.03 2.061.017 3.09-.01.356-2.833.356-5.699.356-8.55v-.035c.001-.988.645-1.551 1.387-1.704 2.432-1.663 4.994-1.291 7.756-.89.729.105 1.471.213 2.229.286.955.092 1.82.765 1.8 1.812-.02 1.068-.123 2.144-.225 3.222-.165 1.722-.329 3.45-.16 5.157zm54.131 4.439c-1.247-.282-2.842-1.796-1.287-2.76 1.654-1.025 4.429-.007 6.541.857-.015.293-.033.586-.05.878a.056.056 0 01-.008.001h-.003l-.004.001c-.449.11-.925.269-1.413.432-1.248.416-2.58.86-3.776.59zm8.936-3.584c.076-3.643-.282-7.353-3.006-9.92-3.476-3.275-8.6-1.63-10.725 2.177-1.109 1.988 2.037 3.76 3.149 1.77 1.922-3.443 5.406-2.396 6.448 1.077.285.959.421 1.953.481 2.963-4.051-1.267-9.492-2.147-10.794 2.59-.623 2.27.946 4.554 2.924 5.672 2.396 1.356 4.85.677 7.296 0 .215-.06.43-.12.645-.178.828 1.26 3.364.956 3.384-.929.009-.864.054-1.775.1-2.71V82.1l.001-.004v-.004c.015-.313.031-.628.045-.946.221-.47.252-1.049.052-1.556zm58.034 3.692c2.327.642 5.054 1.323 6.771-.887 1.297-1.667 1.684-4.662.632-6.525-1.258-2.223-6.172-4.734-7.171-1.285a168.07 168.07 0 01-.232 8.697zm-3.459-13.107c-.061-2.155 3.003-2.315 3.55-.512 3.496-1.228 8.509.979 10.453 4.371 1.846 3.226 1.241 7.908-1.046 10.766-2.513 3.143-6.266 3.002-9.783 2.157-.221 2.544-.41 5.103-.062 7.616.319 2.292-3.186 3.274-3.507.966-.437-3.15-.209-6.257.023-9.398a149.196 149.196 0 00.372-15.966zm39.825 12.492c-3.106 1.504-3.303-2.061-3.433-4.42l-.013-.234c-.067-1.181-.055-2.37-.042-3.558.017-1.63.034-3.26-.154-4.873-.258-2.208-3.777-2.234-3.516 0 .117 1 .144 2.346.174 3.846.037 1.88.079 4.004.31 5.99l-.027.012a1.622 1.622 0 00-.216.11c-.319.204-.714.485-1.159.803-2.062 1.471-5.214 3.72-7.093 2.57-1.898-1.158-1.621-4.495-1.43-6.344l.073-.686c.238-2.227.464-4.34-.175-6.558-.622-2.159-4.015-1.241-3.388.93.486 1.689.326 3.746.162 5.842-.308 3.955-.627 8.046 3.371 10.042 3.417 1.708 7.256-.835 10.237-2.809l.405-.268c1.056 3.079 3.209 4.793 7.689 2.624 2.034-.984.254-4-1.775-3.019zm-38.005 38.25c-.072 1.61 2.112 3.147 3.098 1.457.544-.931 1.968-.083 1.423.849-1.427 2.443-4.289 1.718-5.55-.232-.608 1.777-2.151 2.969-4.556 1.88-.97-.438-.13-1.887.831-1.452 3.211 1.453 3.444-5.804-.197-4.941-1.035.245-1.471-1.378-.439-1.623 2.245-.532 3.656.61 4.282 2.21.96-1.884 2.987-3.597 4.229-1.318.516.947-.908 1.796-1.423.849a1.566 1.566 0 01-.097-.213l-.018-.043c-.006-.013-.012-.02-.019-.021-.006-.002-.013 0-.023.006l-.02.014-.026.021-.002.001a1.731 1.731 0 01-.105.081c-.269.192-.482.509-.661.781-.315.483-.7 1.096-.727 1.694zm-9.203-3.197a39.119 39.119 0 01-2.448 5.059c-1.185-1.173-1.92-2.712-2.64-4.219a65.256 65.256 0 00-.462-.955c-.475-.956-1.908-.118-1.435.837.145.291.287.587.43.884.857 1.779 1.736 3.603 3.239 4.913-.455.73-.928 1.45-1.419 2.162l-.164.242v.001c-.515.765-1.717 2.554-2.496 2.897a.845.845 0 00-.785-.573h-.499c-.648 0-1.013.7-.718 1.249 1.455 2.705 3.934.051 5.051-1.472 2.412-3.287 4.452-6.79 5.95-10.583.392-.994-1.217-1.425-1.604-.442zm22.713 4.17a40.252 40.252 0 00-.288-3.67c-.147-1.121 1.589-1.106 1.733 0 .334 2.567.346 5.157.346 7.742 0 1.133-1.733 1.131-1.733 0 0-.77-.003-1.539-.012-2.309a38.316 38.316 0 00-2.002-.171h-.001c-.683-.047-1.367-.094-2.046-.177l.011.345.012.328c.023.664.046 1.327.051 1.984.011 1.133-1.724 1.13-1.733 0-.005-.648-.025-1.299-.044-1.95-.013-.429-.026-.858-.034-1.287-.11-.22-.104-.493-.009-.737-.008-1.583.077-3.162.464-4.705.275-1.099 1.947-.63 1.673.467-.312 1.242-.406 2.512-.418 3.79.743.108 1.492.156 2.24.204.598.039 1.196.077 1.79.146zm-31.912.475c-.399-.956-2.027-.54-1.622.43.476 1.141-1.115.616-1.699.294-.459-.253-.831-.623-1.2-.989l-.001-.001a12.947 12.947 0 00-.495-.474 6.63 6.63 0 00-.641-.497c1.181-.764 1.915-2.061 1.828-3.69-.056-1.039-1.738-1.045-1.682 0 .095 1.768-1.059 2.762-2.741 2.821.05-.836.103-1.673.223-2.505.145-1.02-1.473-1.462-1.62-.431-.131.908-.185 1.826-.24 2.744-.083 1.417-.167 2.834-.532 4.212-.27 1.012 1.351 1.444 1.62.433.248-.931.364-1.874.439-2.821 1.211.081 2.068.805 2.942 1.542.808.682 1.63 1.375 2.756 1.583 1.858.343 3.451-.767 2.665-2.651zm-111.51-1.344c-.038 1.37 2.479 2.141 3.22 1.04.534-.795.11-2.276-.412-2.97-.858-1.146-2.02-.56-2.855.248a1 1 0 01-.348.536v.203l-.002.204c.235.129.405.373.397.739zm.107-3.955c1.019-.562 2.164-.562 3.137.102 1.526 1.042 2.257 3.352 1.706 5.152-.718 2.352-3.714 2.448-5.428 1.132l-.004.098-.008.176c-.01.236-.02.471-.033.706a44.31 44.31 0 01-.133 1.631c-.131 1.406-.264 2.826-.053 4.215.169 1.107-1.464 1.581-1.634.467-.243-1.601-.115-3.184.014-4.779v-.001a71.698 71.698 0 00.21-8.283c-.032-1.038 1.378-1.119 1.648-.262.21-.142.413-.262.578-.354zm14.958.674a40.314 40.314 0 01-2.559 5.239c-1.239-1.215-2.008-2.81-2.761-4.372v-.001c-.16-.331-.32-.661-.482-.985-.494-.99-1.994-.122-1.5.866.151.302.3.609.45.916.896 1.843 1.814 3.732 3.386 5.089-.475.756-.97 1.502-1.484 2.239-.043.061-.1.146-.17.249v.001l-.002.001c-.537.793-1.794 2.645-2.609 3a.882.882 0 00-.82-.593h-.522c-.678 0-1.06.726-.75 1.294 1.52 2.801 4.112.053 5.28-1.524 2.522-3.405 4.655-7.033 6.22-10.961.41-1.03-1.272-1.476-1.677-.458zm10.232 3.805c-.181.218-.387.4-.607.553.625.298 1.165.705 1.497 1.278.563.969.155 2.012-.618 2.712-1.82 1.654-5.246 1.781-6.61-.485-.543-.901.86-1.72 1.399-.825.792 1.317 2.87 1.062 3.95.242 1.85-1.405-2.597-2.077-3.441-2.204l-.041-.006c-.912-.139-.679-1.644.216-1.602.845.039 4.566-.376 3.05-2.058-.43-.478-2.384-1.249-2.939-.668-.724.759-1.868-.397-1.146-1.154 1.385-1.452 4.742-.315 5.67 1.199.584.951.312 2.196-.38 3.018zm13.721.544c-.209.322-.635.815-1.1.746-.5-.075-.546-.674-.567-1.07a.62.62 0 00-.005-.41c.014-.596.118-1.19.222-1.783v-.001c.079-.448.157-.895.197-1.342.095-1.077-1.65-1.071-1.744 0-.036.398-.114.835-.195 1.29-.105.593-.216 1.216-.246 1.821-.846.992-2.71 2.052-3.995 1.704-1.344-.363-.971-2.37-.693-3.865.088-.477.167-.901.177-1.204.038-1.082-1.707-1.08-1.745 0-.015.45-.082.961-.153 1.495-.276 2.091-.6 4.549 1.95 5.194 1.602.406 3.457-.298 4.822-1.361.105.187.229.365.387.529 1.324 1.371 3.325.448 4.194-.896.595-.921-.914-1.765-1.506-.847zm10.002-.199a40.499 40.499 0 00-.289-3.67c-.145-1.121 1.589-1.106 1.733 0 .334 2.567.346 5.157.347 7.741 0 1.134-1.734 1.133-1.734 0 0-.769-.003-1.539-.012-2.308-.666-.079-1.334-.125-2.002-.171a38.85 38.85 0 01-2.045-.177l.008.279.008.241.007.208v.015c.022.64.044 1.279.05 1.913.01 1.134-1.724 1.131-1.733 0a90.666 90.666 0 00-.043-1.902v-.002a147.04 147.04 0 01-.035-1.332c-.11-.22-.105-.493-.008-.737-.008-1.582.075-3.162.463-4.705.276-1.099 1.946-.63 1.672.467-.312 1.24-.406 2.512-.416 3.79.742.108 1.49.156 2.24.204.597.039 1.195.077 1.79.146zm10.062-4.376c-2.745-2.18-6.897.063-7.236 3.736-.344 3.724 3.828 7.565 6.585 4.37.725-.841-.427-2.121-1.154-1.277-1.84 2.13-4.325-1.285-3.711-3.463.607-2.152 3.049-3.111 4.693-1.805.854.678 1.67-.889.823-1.561zm10.846 7.351c.319-.012.487-.186.507-.519-.496-.969.953-1.824 1.45-.855.953 1.857-1.09 3.475-2.852 3.125-.96-.19-1.535-.835-1.898-1.719a9.328 9.328 0 01-.197-.547c-.168-.497-.328-.969-.739-1.376-.667-.66-1.64-.966-2.536-1.213-.14 1.526-.124 3.032.498 4.273.487.973-.963 1.83-1.45.855-1.021-2.038-.757-4.409-.502-6.703.103-.925.205-1.837.22-2.71.019-1.092 1.697-1.092 1.678 0-.014.78-.123 1.637-.237 2.52 1.177-.138 4.208-.886 3.794-2.125-.347-1.038 1.275-1.48 1.619-.452.606 1.813-1.002 3.016-2.78 3.676a4.6 4.6 0 011.286 1.123c.35.455.525.946.713 1.476l.033.093c.025.07.046.152.068.237.049.189.102.394.205.521.341.45.715.556 1.12.32zm-70.409-14.2c1.05.215 1.5-1.476.444-1.692-2.925-.6-5.795-.639-8.613.219-.326-.301-.876-.377-1.167.005l-.527.693c-.32.421-.216 1.154.177 1.426-.092 1.601-.117 3.212-.141 4.823-.052 3.386-.104 6.775-.779 10.082-.224 1.102 1.385 1.573 1.61.466.698-3.418.76-6.909.82-10.4.032-1.774.063-3.549.178-5.314 2.62-.85 5.253-.871 7.998-.308zm76.783 14.359l.025.017c.387.269 1.502-.371 1.896-.598l.046-.027.028-.016c.174-.1.362-.209.545-.331-.366-.274-1.014-.113-1.39.017a2.096 2.096 0 00-.682.372c-.092.077-.45.414-.463.513-.003.026-.01.038-.019.044l.014.009zm3.013-7.837c1.703 1.21 1.839 3.691 1.767 5.98.202.248.266.602.031.964-.022.036-.049.068-.074.102l-.008.186c-.022.47-.042.917-.046 1.326-.012 1.149-1.56 1.157-1.575.028a7.954 7.954 0 01-1.592.787c-1.082.391-2.958.538-3.192-1.198-.208-1.537 1.482-2.76 2.601-3.07.748-.206 1.645-.233 2.336.162.008-1.142-.107-2.258-.596-3.144-.984-1.784-3.142-.43-3.845.955-.507 1.003-1.869.097-1.359-.907 1.035-2.047 3.612-3.544 5.552-2.171zm10.307 3.516c-.424.111-1.103.223-1.392.182-.1-.014-.2-.04-.297-.069l-.011-.003a.344.344 0 01-.044-.016l-.006-.002c-.015-.005-.069-.037-.11-.061a.566.566 0 01-.055-.048.49.49 0 01-.065-.112l-.013-.054-.01-.041c-.004-.034-.008-.04-.009-.037v-.038c0-.064 0-.124.002-.186a.17.17 0 00-.002-.036l.016-.066c.019-.087.042-.174.066-.26a5.448 5.448 0 00.045-.166 3.247 3.247 0 00.088-.157c.213-.392.25-.447.564-.764l.097-.101c.013-.013.022-.022.032-.03a.552.552 0 01.074-.047l.083-.049c.078-.048.157-.096.241-.137l.009-.005.013-.008.011-.003.028-.008c.324-.106.439-.124.68-.034-.02.12-.01.255.047.405.221.577.244 1.271.248 1.932a.818.818 0 00-.33.019zm-.228-4.046c-.827-.01-1.606.416-2.188.999-1.033 1.035-1.812 3.106-.533 4.277.201.185.427.317.667.412-.075.155-.151.318-.229.484-.663 1.42-1.454 3.111-2.819 2.814-1.002-.217-1.431 1.37-.423 1.589 2.382.516 3.362-1.356 4.318-3.183.286-.546.569-1.088.888-1.56.309-.043.613-.106.898-.179.016.936.02 1.873.02 2.81.002 1.059 1.6 1.062 1.6 0 0-1.319 0-2.64-.045-3.959-.006-.16-.009-.327-.011-.497v-.001c-.008-.453-.016-.934-.072-1.395a.229.229 0 01.023-.01l.004-.002a.142.142 0 00.025-.012c.339-.199.549-.774.287-1.127-.602-.803-1.379-1.447-2.41-1.46zm61.77 4.229c.289.04.968-.07 1.393-.182a.783.783 0 01.33-.018c-.004-.663-.027-1.357-.248-1.933a.784.784 0 01-.048-.406c-.241-.09-.356-.072-.679.035l-.029.008-.011.003-.022.012a2.082 2.082 0 00-.093.049l-.148.089c-.103.061-.132.075-.156.095-.025.021-.045.047-.13.132-.313.316-.35.371-.564.765-.062.112-.078.133-.088.156-.009.023-.012.048-.045.165l-.005.021c-.022.08-.043.16-.06.24l-.001.001a.972.972 0 01-.016.064.106.106 0 01.003.021v.014c-.003.064-.003.125-.003.187v.039c.001-.002.003-.001.005.008l.005.029c.002.014.013.056.023.096a.503.503 0 00.064.111l.025.022.03.026c.041.024.096.055.111.061l.015.006.012.005.021.006.014.004c.095.03.195.055.295.069zm1.164-4.229c1.031.013 1.809.659 2.41 1.461.263.352.052.929-.286 1.126a.278.278 0 01-.039.019l-.013.005c.056.461.064.942.071 1.396.003.171.006.338.011.499.045 1.319.045 2.637.045 3.958 0 1.061-1.598 1.059-1.599 0 0-.937-.004-1.873-.021-2.81a7.882 7.882 0 01-.898.178c-.318.472-.601 1.014-.887 1.56-.956 1.827-1.936 3.7-4.319 3.182-1.007-.217-.579-1.805.423-1.587 1.366.297 2.157-1.396 2.82-2.816l.228-.483a2.132 2.132 0 01-.666-.411c-1.279-1.171-.5-3.241.532-4.278.582-.583 1.361-1.009 2.188-.999z" fill="#000" fill-opacity=".85"/></g><defs><clipPath id="clip0"><path fill="#fff" transform="translate(.24 .39)" d="M0 0h202v131.498H0z"/></clipPath></defs></svg>