<svg width="264" height="39" xmlns="http://www.w3.org/2000/svg"><g id="Page-1" stroke="none" stroke-width="1" fill="none" fill-rule="evenodd"><g id="1920x1080-Оформление-заказа" transform="translate(-828 -159)" fill="#000"><g id="logo-vert" transform="translate(828 71)"><g id="Group-4" transform="translate(0 88.615)"><path d="M172.557 18.684c-3.3 5.94-9.747-.374-9.153-5.153.224-1.813 1.31-3.68 2.281-5.213.474-.748 1.186-2.056 2.035-2.467.583-.282.16-.313.716.768 1.368 2.652 5.503.325 4.137-2.322-3.674-7.122-9.593-1.304-12.392 4.281-1.798-4.91-6.194-8.539-13.358-6.94-3.003.67-1.73 5.105 1.273 4.434 11.63-2.593 10.88 19.145.573 14.757-2.794-1.187-5.236 2.773-2.419 3.972 7.26 3.09 11.95-.203 13.873-5.205 3.501 6.157 12.171 9.326 16.573 1.41 1.451-2.612-2.684-4.938-4.139-2.322" id="Fill-13"/><path d="M198.284 2.588c-1.734 4.423-3.789 8.642-6.088 12.729-3.52-3.637-5.455-8.574-7.67-13.08-1.342-2.734-5.407-.336-4.066 2.392 2.568 5.226 4.867 10.929 9.274 14.878a134.34 134.34 0 01-3.47 5.335c-.855 1.25-4.408 6.777-6.54 7.962-.382-.8-1.196-1.375-2.119-1.375h-1.274c-1.826 0-2.882 2-2.034 3.567 7.772 14.355 26.973-27.181 28.53-31.148 1.112-2.839-3.442-4.07-4.543-1.26" id="Fill-15"/><path d="M21.115 16.999c-2.546 3.042-8.495 4.283-12.203 2.817-2.793-1.103-4.124-3.52-4.09-6.32.03-2.205.826-5.99 2.938-7.434 6.715.72 18.538 4.745 13.355 10.937M9.482 1.349C9 1.057 8.398.916 7.698 1.053a7.463 7.463 0 00-.688.169c-.772.003-1.531.041-2.263.133-1.791.221-2.53 1.931-2.208 3.219C-.505 8.876-.84 15.91 1.685 19.814c4.06 6.277 13.39 6.305 19.476 3.009 5.861-3.176 8.041-10.011 3.109-14.966-3.502-3.516-9.328-5.94-14.788-6.508" id="Fill-17"/><path d="M109.78 20.158c-3.763.263-9.077.103-11.15-3.726-2.33-4.304.289-11.35 5.75-10.466 2.906.47 4.157-3.982 1.226-4.456C98.255.32 93.391 5.753 93.264 12.54a2.4 2.4 0 00-.42.238 32.387 32.387 0 00-2.476 1.956c.174-3.321.541-6.635.811-9.96.24-2.964-4.372-2.945-4.616 0-.192 2.316-1.633 4.486-3.43 6.051-1.854-5.933-10-12.45-15.706-8.737-2.482 1.616-.172 5.618 2.33 3.99 3.39-2.205 8.959 4.047 9.153 7.2.345 5.58-6.574 7.736-11.01 7.09-2.906-.423-4.161 4.028-1.228 4.455 6.542.95 14.78-1.912 16.533-8.502a2.59 2.59 0 00.45-.205c.736-.429 1.44-.922 2.103-1.466-.118 2.214-.153 4.433-.008 6.662.138 2.097 3.224 3.386 4.302 1.166.965-1.987 2.38-3.547 4.06-4.897 2.381 5.935 9.598 7.623 15.669 7.2 2.948-.208 2.97-4.829 0-4.622" id="Fill-19"/><path d="M42.447 6.293c2.155-1.335 5.048-.695 7.675-.17-.178 3.053-.55 6.055-.357 9.108-2.59.15-5.176.35-7.765.512.332-3.141.428-6.284.447-9.45M57.48 15.06a73.187 73.187 0 00-3.097-.015c-.359-3.604.43-7.277.499-10.878.026-1.358-1.098-2.232-2.338-2.352-4.716-.454-8.976-1.944-12.966.785-.963.197-1.8.929-1.802 2.211 0 3.717.002 7.452-.463 11.144a72.374 72.374 0 01-4.01.014c-1.629-.048-2.522 1.533-2.255 2.977.538 2.911.52 5.879.874 8.815.359 2.967 5.038 3.004 4.676 0-.284-2.36-.382-4.72-.625-7.07 6.454-.067 12.877-.913 19.334-.94.17 1.998.298 4.162-.565 5.733-1.456 2.65 2.58 5.028 4.037 2.373 1.76-3.203 1.128-6.93 1.04-10.444a2.39 2.39 0 00-2.339-2.353" id="Fill-21"/><path d="M125.293 20.305c-1.61-.375-3.67-2.39-1.662-3.672 2.135-1.364 5.717-.01 8.443 1.14-.019.39-.041.78-.064 1.168l-.02.004c-2.062.52-4.55 1.86-6.697 1.36m11.534-4.769c.1-4.848-.363-9.785-3.88-13.201-4.487-4.359-11.1-2.17-13.844 2.896-1.432 2.645 2.629 5.005 4.064 2.355 2.481-4.58 6.98-3.188 8.324 1.434.369 1.276.544 2.599.621 3.944-5.23-1.686-12.253-2.858-13.933 3.446-.804 3.02 1.22 6.06 3.774 7.549 3.365 1.963 6.82.72 10.25-.238 1.07 1.678 4.343 1.272 4.37-1.236.015-1.54.114-3.19.188-4.878a2.727 2.727 0 00.066-2.07" id="Fill-23"/><path d="M221.82 19.182c-2.182 2.875-5.648 1.988-8.606 1.154.194-3.766.29-7.543.295-11.318 1.27-4.488 7.516-1.22 9.115 1.672 1.337 2.424.846 6.321-.803 8.492m-8.492-16.57c-.694-2.346-4.59-2.138-4.511.667.171 6.155.085 12.357-.316 18.503-.316 4.868-.846 9.646-.187 14.504.407 3.003 4.863 1.725 4.458-1.257-.443-3.27-.202-6.6.078-9.911 4.471 1.1 9.242 1.283 12.436-2.807 2.908-3.72 3.677-9.812 1.33-14.01-2.471-4.415-8.843-7.286-13.288-5.689" id="Fill-25"/><path d="M260.49 19.63c-4.218 2.07-4.352-3.07-4.528-6.193-.208-3.728.17-7.507-.257-11.22-.34-2.939-4.961-2.973-4.618 0 .347 3 .09 8.34.636 13.09-.107.049-.211.094-.32.163-2.367 1.524-7.838 6.348-10.84 4.488-2.492-1.541-2.129-5.982-1.877-8.443.336-3.304.79-6.385-.134-9.64-.817-2.873-5.275-1.652-4.45 1.238 1.843 6.487-3.394 17.074 4.64 21.138 4.695 2.378 9.995-1.433 13.978-4.094 1.387 4.096 4.216 6.378 10.1 3.491 2.672-1.31.334-5.323-2.33-4.017" id="Fill-27"/></g></g></g></g></svg>