<svg width="203" height="132" viewBox="0 0 203 132" fill="none" xmlns="http://www.w3.org/2000/svg">
<g clip-path="url(#clip0)">
<path fill-rule="evenodd" clip-rule="evenodd" d="M60.2439 4.18866L60.2775 4.17243C60.2949 4.164 60.3089 4.15716 60.3218 4.1515C60.3372 4.14637 60.3524 4.14109 60.3676 4.13583L60.3678 4.13578C60.4185 4.11818 60.4685 4.10086 60.5212 4.09057C60.5617 4.08165 60.582 4.07719 60.6053 4.07125C60.6116 4.07125 60.6116 4.07125 60.6178 4.06976C60.6895 4.06084 60.8375 4.07719 60.9279 4.08908L60.9785 4.09926C61.0713 4.11776 61.1649 4.13643 61.2519 4.16785C61.3142 4.19163 61.3485 4.20203 61.3703 4.20798C61.3863 4.21736 61.4032 4.22766 61.4265 4.24181L61.4467 4.25405L61.5311 4.30121L61.5312 4.30128C61.6536 4.36956 61.7747 4.43716 61.8938 4.50968C61.9779 4.56021 61.9639 4.54089 61.9561 4.53197C61.9655 4.54089 62.0013 4.57507 62.115 4.67316C62.4157 4.93176 62.6946 5.2082 62.9517 5.50395C62.968 5.526 62.995 5.56108 63.0245 5.59948L63.0257 5.601L63.026 5.60145C63.0777 5.66873 63.1368 5.74563 63.1605 5.78039L63.2285 5.88144L63.2285 5.88156L63.2286 5.88166C63.3136 6.00763 63.3981 6.13292 63.4767 6.26192C63.592 6.44918 63.6964 6.64239 63.8008 6.83708C63.8318 6.89387 63.8599 6.95254 63.8881 7.0116L63.8882 7.01177L63.9099 7.05704C63.9161 7.0719 63.9192 7.07636 63.9239 7.08527C63.9301 7.1015 63.9347 7.11479 63.9439 7.14114L63.944 7.14143L63.9441 7.14175C64.0812 7.49101 64.1872 7.84473 64.2838 8.20736C64.2941 8.24389 64.3127 8.35677 64.3294 8.45767L64.3294 8.45791L64.3296 8.45911L64.3297 8.45958C64.3407 8.52627 64.3508 8.58748 64.357 8.61755L64.3607 8.66219L64.3608 8.66237C64.3721 8.79755 64.3835 8.93285 64.3835 9.06936C64.3835 9.21947 64.371 9.37106 64.357 9.52117L64.3532 9.53768C64.339 9.5999 64.3174 9.69434 64.2931 9.76639C64.2043 10.0413 64.1872 10.08 64.0439 10.2776C63.966 10.3861 63.9301 10.4307 63.6388 10.5749C63.5406 10.6254 63.497 10.6492 63.483 10.6596L63.4737 10.6627L63.4651 10.6653C63.4542 10.6686 63.4423 10.6722 63.4253 10.6789C63.1636 10.7636 62.8909 10.829 62.6183 10.8692C62.464 10.8929 61.4794 10.8766 60.9808 10.8454C60.9325 10.8423 60.8832 10.8396 60.833 10.8367L60.8326 10.8367L60.8322 10.8367L60.832 10.8367L60.8319 10.8367L60.8317 10.8367L60.8316 10.8367C60.317 10.8078 59.7189 10.7741 59.3558 10.4129C58.5488 9.61331 59.2857 8.26384 60.1083 7.70354C61.4778 6.7702 61.0104 4.98526 59.9307 4.38781C59.9554 4.36804 59.9763 4.35065 59.9998 4.33112L60.0445 4.29418C60.0446 4.2941 60.0445 4.29411 60.0443 4.29418L60.0431 4.29451C60.033 4.29739 59.9804 4.31234 60.2439 4.18866ZM55.2022 9.7441C55.2034 9.78053 55.203 9.81629 55.2025 9.85198V9.85203V9.85208V9.85213V9.85218V9.85223V9.85228V9.85232V9.85237V9.85242V9.85247V9.85252V9.85257V9.85262V9.85266V9.85271V9.85276V9.85281V9.85286V9.85291V9.85296V9.85301V9.85305V9.8531C55.2019 9.90877 55.2012 9.96429 55.2069 10.022C55.411 12.1488 57.0219 13.8579 59.2 14.3365C62.1415 14.983 66.0693 14.5951 67.5977 11.7549C69.8458 7.57275 65.9602 0.550422 60.8905 0.392884C56.8288 0.266557 54.9514 4.52305 54.1085 7.63814C53.8327 8.65917 54.4154 9.41713 55.2022 9.7441ZM64.4637 20.7768C72.8722 19.1531 74.6454 31.0111 75.6501 37.7293L75.6502 37.7298C75.7637 38.4894 75.8675 39.1833 75.9699 39.7846C76.0886 40.4831 76.5775 40.8625 77.1518 40.9815C70.8418 41.2433 64.5375 41.6086 58.2419 42.0762C56.8648 34.1542 55.0189 22.6008 64.4637 20.7768ZM36.4577 47.5932C42.7142 46.8708 48.9866 46.2759 55.2692 45.7747C55.2721 45.8027 55.2764 45.8321 55.2808 45.8601C55.5759 48.0398 59.162 48.0692 58.8625 45.8601C58.8519 45.7827 58.84 45.7016 58.8282 45.6205L58.8105 45.4989C72.4157 44.5008 86.0628 43.9927 99.697 43.9143C116.886 43.817 133.995 45.1199 151.109 46.4233L151.11 46.4233L151.11 46.4233L151.111 46.4234L151.111 46.4234L151.112 46.4234L151.112 46.4235L151.113 46.4235L151.113 46.4235L151.114 46.4236L151.114 46.4236L151.115 46.4236L151.115 46.4237L151.116 46.4237L151.116 46.4237L151.117 46.4238L151.117 46.4238L151.118 46.4238L151.118 46.4239L151.119 46.4239L151.119 46.4239L151.12 46.424L151.12 46.424L151.121 46.424L151.121 46.4241L151.122 46.4241L151.122 46.4241L151.123 46.4242C156.421 46.8277 161.72 47.2312 167.021 47.5932C169.321 47.75 169.311 44.2838 167.021 44.127C161.728 43.7653 156.438 43.3624 151.148 42.9595C134.021 41.6549 116.899 40.3508 99.697 40.4481C92.5117 40.4901 85.3222 40.6581 78.1384 40.9451C78.8689 40.7449 79.4967 40.1751 79.4881 39.324C79.4805 38.5956 79.4154 37.7452 79.3454 36.8321L79.3453 36.8309L79.3453 36.8304C79.0241 32.6405 78.602 27.1339 83.1826 26.0628C90.6832 24.3087 94.2028 31.9507 96.0168 37.5097C96.6041 39.3086 99.6217 39.0762 99.5349 37.0492C99.3917 33.6852 100.283 28.0072 105.005 28.2928C109.459 28.5616 110.14 33.7356 109.739 37.0506C109.489 39.1196 112.605 39.2064 113.257 37.5111C113.567 36.7054 113.804 35.743 114.05 34.7412C114.835 31.5517 115.718 27.9629 119.368 27.7594C125.059 27.4431 127.796 33.9596 127.932 38.5135C127.991 40.4775 130.841 40.8513 131.451 38.974C131.799 37.9031 132.066 36.4299 132.362 34.8046C133.235 30.0013 134.349 23.8695 138.476 22.8654C142.473 21.8925 145.511 25.325 146.13 28.7212C146.671 31.6909 146.229 34.787 145.804 37.7662C145.758 38.0915 145.711 38.4153 145.667 38.7374C145.363 40.9185 148.815 41.8634 149.12 39.6586C149.512 36.8448 149.885 33.4668 149.664 30.2793C150.182 29.9548 151.101 29.7747 151.945 29.6093C152.499 29.5007 153.021 29.3984 153.376 29.2657C154.534 28.8346 155.605 28.3012 156.576 27.5495C158.477 26.0756 159.727 23.9669 160.931 21.9362C161.062 21.7141 161.193 21.493 161.325 21.2737C162.483 19.3405 159.388 17.5934 158.23 19.5239C158.069 19.7933 157.909 20.0675 157.748 20.3435C156.545 22.4035 155.282 24.5672 153.037 25.6498C152.43 25.9427 151.62 26.1389 150.774 26.3438C150.225 26.4766 149.661 26.6132 149.127 26.7823C148.091 22.759 145.522 19.6274 139.919 19.3237C133.241 18.9639 131.053 25.2102 129.662 31.1164C127.853 27.4893 124.736 24.5999 120.322 24.3143C115.607 24.0091 113.523 26.4673 112.169 29.6605C110.872 26.9727 108.54 24.9345 105.005 24.8267C100.788 24.6965 98.2359 27.3115 96.9571 30.6194C94.1883 25.528 89.8818 21.5145 83.1103 22.5672C79.6935 23.0992 77.8447 24.8225 76.8567 27.1015C74.8561 21.1939 71.3119 16.1963 64.267 17.298C58.0611 18.2681 55.3155 22.0227 54.3 26.7389C50.2563 25.3173 47.0951 22.594 43.9065 19.8471C43.4278 19.4346 42.9484 19.0217 42.4654 18.6125C40.7367 17.1496 38.1936 19.591 39.9324 21.0637C40.361 21.4266 40.7871 21.791 41.2124 22.1548L41.2125 22.1548L41.2125 22.1549L41.2125 22.1549L41.2126 22.1549L41.2126 22.1549L41.2126 22.155L41.2127 22.155L41.2127 22.155L41.2127 22.1551L41.2128 22.1551L41.2128 22.1551L41.2129 22.1551L41.2129 22.1552L41.2129 22.1552L41.213 22.1552L41.213 22.1553L41.213 22.1553L41.2131 22.1553L41.2131 22.1553L41.2131 22.1554L41.2132 22.1554L41.2132 22.1554L41.2132 22.1555L41.2133 22.1555L41.2133 22.1555L41.2133 22.1555L41.2134 22.1556C45.0709 25.4545 48.8666 28.7007 53.8486 30.2527C53.6186 34.255 54.2059 38.5821 54.7658 42.3478C48.6525 42.8405 42.5479 43.4229 36.4577 44.127C34.1981 44.3874 34.1706 47.8578 36.4577 47.5932ZM86.9532 14.9611C86.9282 14.9567 86.7949 14.4978 86.8242 14.5529C86.6409 14.217 86.2335 13.887 86.0048 13.7929C85.9529 13.7716 85.9043 13.7562 85.8564 13.7409L85.8563 13.7409C85.8325 13.7333 85.8088 13.7258 85.7849 13.7176C85.7072 14.9162 84.4452 16.0554 83.1011 15.2419C82.9692 15.1608 82.8446 15.074 82.72 14.9857C82.7035 15.0036 82.6879 15.0225 82.6722 15.0415L82.6501 15.068L82.635 15.0856L82.6294 15.1085L82.6294 15.1086C82.5931 15.2587 82.5567 15.409 82.5456 15.5633C82.5031 16.0945 82.591 16.384 82.8622 16.5158C83.5643 16.8574 84.7369 16.5013 85.4757 16.2451C85.8655 16.1104 86.254 15.9382 86.5838 15.6834C86.7068 15.5891 86.7533 15.5074 86.8069 15.4132C86.8389 15.357 86.8735 15.2963 86.9282 15.226C86.9341 15.2173 86.9678 15.1246 86.9502 15.1652C86.9084 15.2705 86.92 15.1945 86.935 15.0968C86.9421 15.0508 86.9499 15 86.9532 14.9611ZM90.5707 14.7483C90.7451 17.1541 88.8294 18.8376 86.7216 19.6049C84.3485 20.4676 81.1296 20.6471 79.6023 18.2485C78.22 16.08 79.1098 13.266 80.4656 11.319C80.8013 10.8369 81.3847 10.3578 82.0311 10.4316C82.2993 10.462 82.5441 10.5069 82.7801 10.5663C84.0788 9.99736 85.527 9.83523 86.9707 10.3361C88.8968 11.0049 90.4227 12.6956 90.5707 14.7483ZM104.58 14.9892C104.604 14.9944 104.638 15.0012 104.673 15.0082C104.739 15.0215 104.81 15.0359 104.832 15.0431C104.884 15.0583 104.905 15.0611 104.917 15.0583C104.935 15.0724 104.958 15.0877 104.986 15.1064L104.993 15.1109L105.016 15.133C105.025 15.1404 105.031 15.1454 105.036 15.15L105.049 15.162L105.051 15.1657C105.055 15.1767 105.061 15.1926 105.076 15.2174C105.111 15.2819 105.128 15.3714 105.143 15.453C105.149 15.4868 105.155 15.5192 105.162 15.5479C105.09 15.2501 105.1 15.4584 105.112 15.6996V15.6997L105.112 15.7001C105.117 15.8014 105.122 15.9086 105.122 15.9863C105.114 16.0347 105.105 16.0831 105.098 16.1121C105.07 16.203 105.044 16.2951 105.018 16.3871L105.018 16.3877L105.018 16.3883C104.996 16.468 104.974 16.5478 104.95 16.6266C104.928 16.6979 104.899 16.7684 104.87 16.8379L104.87 16.8381L104.852 16.8838C104.842 16.9043 104.826 16.9362 104.81 16.9717C104.774 17.0463 104.731 17.1364 104.714 17.1673C104.556 17.4301 104.401 17.686 104.218 17.9335C104.197 17.9625 104.185 17.9791 104.178 17.993L104.169 18.0016L104.151 18.0193L104.133 18.0373C104.125 18.0454 104.116 18.0545 104.105 18.0649C103.994 18.1783 103.881 18.2889 103.766 18.3982C103.716 18.4459 103.66 18.489 103.604 18.5317L103.588 18.5448C103.568 18.5566 103.538 18.5758 103.504 18.5973C103.428 18.6461 103.332 18.7073 103.294 18.7246C103.27 18.7354 103.233 18.7533 103.195 18.7717L103.194 18.7719L103.135 18.8006C103.098 18.8158 103.062 18.8283 103.03 18.8393C103.028 18.8393 103.027 18.8393 103.025 18.838L103.036 18.8341C103.045 18.8306 103.054 18.8275 103.068 18.8214L103.072 18.8201L103.072 18.8199C103.138 18.7954 103.164 18.7858 103.163 18.7845C103.163 18.7837 103.152 18.7862 103.134 18.7903C103.099 18.7984 103.037 18.8128 102.976 18.82C102.935 18.8048 102.902 18.7951 102.886 18.7937L102.859 18.7797L102.841 18.7701L102.841 18.77L102.841 18.7699C102.806 18.7519 102.771 18.7337 102.737 18.7135C102.76 18.7412 102.765 18.7481 102.779 18.7647C102.777 18.7647 102.774 18.7633 102.773 18.7633L102.772 18.7619C102.741 18.7263 102.704 18.6839 102.663 18.6416C102.622 18.5973 102.441 18.4134 102.461 18.4466C102.199 18.1382 101.865 17.686 101.851 17.2946C101.832 16.7803 102.285 16.3441 102.649 15.9937L102.682 15.9624L102.736 15.9102C103.007 15.6447 103.154 15.357 103.215 15.0694C103.654 14.9795 104.096 14.9449 104.58 14.9892ZM102.979 18.8559L102.981 18.8573C102.964 18.8629 102.963 18.8629 102.979 18.8559ZM102.777 18.7674C102.779 18.7688 102.782 18.7688 102.783 18.7702C102.835 18.8366 102.823 18.8228 102.777 18.7674ZM98.3081 18.2046C98.6301 19.5087 99.5634 20.8405 100.771 21.597C102.243 22.5194 104.101 22.3784 105.528 21.4518C108.135 19.759 110.202 15.4234 107.77 12.8746C106.045 11.0671 103.156 11.446 100.949 12.1112C99.967 12.4058 99.599 13.2079 99.6865 13.9589C98.6122 15.1551 97.9089 16.5893 98.3081 18.2046ZM119.932 18.3501C120.242 18.5115 120.676 18.501 121.101 18.4014C122.057 18.1796 122.551 17.2729 122.394 16.7041C122.311 16.3993 122.262 16.253 122.051 16.1489C122.033 16.1404 122.012 16.1362 121.99 16.132C121.974 16.1287 121.957 16.1255 121.942 16.1202C121.411 16.7946 120.51 17.1311 119.726 16.6377C119.66 16.9817 119.634 17.3257 119.672 17.6546C119.687 17.7904 119.745 18.1072 119.829 18.2822C119.778 18.1766 119.929 18.3199 119.932 18.3501ZM125.912 15.5047C126.615 17.9095 125.382 20.5105 123.188 21.6164C120.727 22.8581 117.399 22.2124 116.338 19.4726C115.455 17.1929 116.227 14.4591 117.487 12.4767C118.029 11.6228 119.129 11.2878 120.021 11.8068C120.333 11.9894 120.577 12.19 120.806 12.4028C123.013 12.1735 125.217 13.1285 125.912 15.5047ZM145.247 9.83299C145.232 9.81852 145.234 9.81417 145.247 9.81996C145.249 9.82431 145.247 9.82865 145.247 9.83299ZM144.117 12.9034C144.007 13.0771 143.891 13.2479 143.771 13.4158C143.762 13.4291 143.752 13.4422 143.742 13.4554L143.725 13.478C143.699 13.5119 143.673 13.5458 143.65 13.5809C143.639 13.5953 143.636 13.6011 143.627 13.6127L143.623 13.6171C143.527 13.7173 143.436 13.8204 143.344 13.9234C143.198 14.0881 143.051 14.2528 142.89 14.406C142.827 14.4655 142.76 14.5216 142.693 14.5778C142.635 14.6269 142.577 14.676 142.521 14.7274C142.476 14.7527 142.432 14.783 142.389 14.8131L142.389 14.8133C142.351 14.8399 142.313 14.8665 142.274 14.8895C142.231 14.9143 142.183 14.9383 142.134 14.9627C142.083 14.9882 142.031 15.0141 141.983 15.0415L141.962 15.0495C141.927 15.0629 141.892 15.076 141.857 15.082L141.851 15.0835L141.844 15.0849L141.84 15.0806C141.808 15.0487 141.789 15.0328 141.77 15.0169L141.767 15.0131C141.767 15.0119 141.766 15.0108 141.766 15.0085L141.765 15.0082C141.727 14.9371 141.688 14.8666 141.649 14.7962L141.648 14.7954C141.601 14.7099 141.554 14.6248 141.507 14.5392C141.516 14.5414 141.47 14.4274 141.419 14.2995C141.371 14.1803 141.319 14.0492 141.301 13.9891C141.2 13.659 141.12 13.3217 141.056 12.983C140.949 12.4228 140.921 11.6787 140.99 11.1387C141.36 11.3211 141.795 11.3848 142.255 11.2444C142.436 11.3501 142.617 11.4601 142.793 11.573C143.624 12.1029 144.427 11.8611 144.939 11.3153L144.919 11.367L144.919 11.3674L144.918 11.3678C144.889 11.443 144.86 11.5184 144.835 11.5947C144.804 11.6536 144.776 11.7137 144.748 11.7737C144.724 11.8244 144.7 11.8751 144.675 11.9248C144.507 12.2606 144.319 12.5864 144.117 12.9034ZM142.623 18.5838C144.741 18.1582 146.381 16.2155 147.425 14.4943C148.428 12.8411 149.389 10.564 148.734 8.63003C147.737 5.68847 144.551 6.31095 142.163 7.32428C141.098 7.03765 139.991 7.04923 139.009 7.68763C136.993 9.00351 137.113 11.8929 137.514 13.9355C137.999 16.4124 139.608 19.1889 142.623 18.5838ZM125.402 78.3473C124.95 81.9387 129.858 86.6831 132.37 82.2192C133.478 80.2539 136.626 82.0015 135.521 83.964C132.17 89.913 125.57 87.5317 122.904 82.9046C121.44 86.6635 117.869 89.1383 112.342 86.8157C110.198 85.9154 112.057 82.9395 114.184 83.8314C122.03 87.1283 122.602 70.7945 113.748 72.7431C111.462 73.247 110.492 69.9138 112.778 69.4113C118.233 68.2095 121.579 70.9369 122.948 74.626C125.079 70.4288 129.585 66.0571 132.382 71.4087C133.422 73.3977 130.274 75.1467 129.233 73.1534C129.069 72.8397 129.017 72.6507 128.989 72.549C128.972 72.4896 128.964 72.46 128.946 72.4529C128.929 72.4459 128.903 72.4608 128.851 72.4904C128.813 72.5122 128.761 72.542 128.688 72.577C128.127 72.8444 127.645 73.6188 127.292 74.1866C127.238 74.2736 127.186 74.3558 127.138 74.4306C126.399 75.5822 125.573 76.9849 125.402 78.3473ZM151.915 69.6445C150.579 73.0425 148.997 76.2846 147.227 79.4252C145.004 77.1325 143.601 74.1676 142.228 71.2646C141.927 70.6288 141.627 69.996 141.321 69.3738C140.287 67.2732 137.157 69.1164 138.19 71.2126C138.475 71.7913 138.755 72.3776 139.037 72.9664C140.711 76.4635 142.427 80.0479 145.331 82.6453C144.476 84.0295 143.584 85.3946 142.658 86.745C142.592 86.8412 142.506 86.9705 142.401 87.1261L142.401 87.1264C141.463 88.5237 139.1 92.0436 137.623 92.8629C137.328 92.248 136.701 91.8067 135.991 91.8067H135.01C133.604 91.8067 132.791 93.3439 133.444 94.5472C139.429 105.578 154.215 73.6603 155.413 70.6124C156.27 68.4309 152.763 67.485 151.915 69.6445ZM6.94121 82.644C9.72932 83.7913 14.202 82.8203 16.1163 80.4389C20.0138 75.5923 11.1241 72.4411 6.07478 71.8784C4.4868 73.0082 3.8882 75.9713 3.86625 77.6975C3.83991 79.8879 4.84099 81.7801 6.94121 82.644ZM6.02794 67.9574C6.55483 67.8501 7.00707 67.9603 7.37004 68.1895C11.4754 68.6332 15.8558 70.5312 18.4888 73.2829C22.1975 77.1613 20.5583 82.5118 16.1515 84.9975C11.5749 87.5772 4.55998 87.5552 1.50697 82.6425C-0.391277 79.5868 -0.139543 74.0806 2.14948 70.7134C1.90653 69.7056 2.46269 68.3673 3.80917 68.1939C4.35947 68.1219 4.93027 68.0925 5.5113 68.0896C5.67961 68.0382 5.85232 67.9926 6.02794 67.9574ZM84.3125 82.9117C81.4264 83.1176 77.3524 82.992 75.7629 79.9954C73.976 76.6264 75.9844 71.1107 80.1713 71.8029C82.3999 72.1709 83.359 68.6865 81.1119 68.3156C75.4755 67.3839 71.7461 71.6364 71.6489 76.9476C71.5417 76.9958 71.4344 77.0572 71.3272 77.1346C70.6683 77.6165 70.0321 78.1261 69.4289 78.665C69.5173 76.9363 69.6715 75.2102 69.8258 73.4823L69.8259 73.4817C69.9036 72.6116 69.9813 71.7411 70.0507 70.8697C70.2337 68.5492 66.6986 68.5638 66.5114 70.8697C66.3641 72.682 65.2591 74.3804 63.8811 75.6056C62.4603 70.9617 56.2149 65.8607 51.8393 68.7668C49.9367 70.0315 51.7078 73.1639 53.6262 71.8905C56.2249 70.1644 60.4947 75.058 60.6434 77.5259C60.9079 81.8938 55.6031 83.5805 52.2024 83.0752C49.9739 82.7437 49.0118 86.2281 51.2604 86.5625C56.2764 87.3058 62.5932 85.0657 63.9369 79.9077C64.0498 79.8669 64.1656 79.8157 64.2814 79.7471C64.846 79.4112 65.3864 79.0257 65.8938 78.5993C65.8038 80.3327 65.7766 82.069 65.8881 83.8141C65.9939 85.4556 68.3597 86.4647 69.1859 84.7269C69.9264 83.1716 71.0113 81.9508 72.2993 80.8935C74.1247 85.5388 79.6582 86.8604 84.3125 86.5289C86.5725 86.3668 86.5896 82.7496 84.3125 82.9117ZM38.6179 71.8217C36.6497 71.4271 34.5137 70.9988 32.9093 71.9938C32.8947 74.4323 32.8206 76.8532 32.5646 79.2726C33.4311 79.2186 34.2973 79.159 35.1635 79.0994L35.1658 79.0992C36.2919 79.0217 37.4179 78.9442 38.5444 78.8789C38.4344 77.1352 38.5634 75.4132 38.6932 73.6808L38.6932 73.6807C38.7385 73.0762 38.7839 72.4704 38.8192 71.862L38.6179 71.8217ZM42.0999 78.7355C42.8939 78.7238 43.6894 78.7252 44.4848 78.7472C45.481 78.7765 46.2604 79.5595 46.2852 80.5592C46.2977 81.057 46.3244 81.5603 46.3513 82.0655C46.4704 84.3087 46.5915 86.591 45.4853 88.605C44.3627 90.6498 41.255 88.8187 42.3762 86.7769C43.0408 85.5664 42.9419 83.8993 42.811 82.361C40.263 82.3715 37.7218 82.5477 35.1806 82.7239H35.1805H35.1805H35.1804H35.1803H35.1803H35.1802H35.1801H35.1801H35.18H35.1799H35.1799H35.1798H35.1797H35.1796H35.1796H35.1795H35.1794H35.1794C32.7625 82.8915 30.3456 83.0591 27.9228 83.0841C28.0055 83.8825 28.0665 84.6824 28.1275 85.4831L28.1275 85.4832L28.1275 85.4832L28.1275 85.4833L28.1275 85.4834L28.1275 85.4834L28.1275 85.4835L28.1275 85.4836L28.1275 85.4836L28.1275 85.4837L28.1275 85.4838L28.1275 85.4838L28.1275 85.4839L28.1275 85.484L28.1275 85.484L28.1275 85.4841L28.1275 85.4842L28.1276 85.4843L28.1276 85.4843C28.2048 86.4988 28.2822 87.5146 28.4041 88.5304C28.6833 90.8445 25.0798 90.8167 24.8035 88.5304C24.6948 87.6264 24.6316 86.7185 24.5685 85.8109C24.4737 84.4482 24.379 83.0864 24.1302 81.7404C23.9251 80.628 24.613 79.4102 25.8665 79.4468C26.8976 79.4761 27.9271 79.4644 28.9553 79.4366C29.3116 76.6041 29.3116 73.7383 29.3116 70.8867V70.8521C29.313 69.8641 29.9572 69.3006 30.6989 69.1484C33.1306 67.485 35.6926 67.8567 38.4555 68.2576L38.4558 68.2576C39.184 68.3633 39.9261 68.4709 40.6835 68.5439C41.6389 68.6361 42.5042 69.3094 42.4838 70.3559C42.4637 71.4236 42.3612 72.4995 42.2586 73.5775L42.2586 73.5775C42.0945 75.3 41.93 77.0277 42.0999 78.7355ZM96.2313 83.1738C94.9839 82.892 93.3889 81.3784 94.9441 80.4142C96.5981 79.3891 99.3728 80.4071 101.485 81.2708C101.47 81.5639 101.452 81.857 101.435 82.1487C101.432 82.1495 101.43 82.1498 101.427 82.1502L101.424 82.1507L101.42 82.1515C100.971 82.2614 100.495 82.4199 100.007 82.5828C98.7589 82.9991 97.4266 83.4435 96.2313 83.1738ZM105.167 79.5902C105.243 75.9471 104.885 72.2374 102.161 69.6704C98.685 66.3954 93.5612 68.0407 91.436 71.8466C90.327 73.8345 93.4728 75.6072 94.5848 73.6165C96.5068 70.1744 99.9913 71.2208 101.033 74.694C101.318 75.6526 101.454 76.6465 101.514 77.6575C97.4626 76.3902 92.0221 75.5095 90.7202 80.2471C90.0972 82.5168 91.6657 84.8007 93.6437 85.9192C96.0397 87.2753 98.4942 86.5955 100.94 85.9181C101.155 85.8586 101.37 85.799 101.585 85.7408C102.413 87.001 104.949 86.6966 104.969 84.812C104.978 83.9478 105.023 83.0369 105.069 82.1024L105.069 82.0996L105.07 82.0962L105.07 82.0923C105.085 81.7793 105.101 81.4636 105.115 81.1462C105.336 80.6762 105.367 80.0971 105.167 79.5902ZM163.201 83.2819C165.528 83.9235 168.255 84.6046 169.972 82.3952C171.269 80.7275 171.656 77.7326 170.604 75.8696C169.346 73.6469 164.432 71.1365 163.433 74.585C163.43 77.4859 163.354 80.3883 163.201 83.2819ZM159.742 70.1749C159.681 68.0198 162.745 67.8598 163.292 69.6626C166.788 68.4353 171.801 70.6418 173.745 74.0345C175.591 77.2599 174.986 81.9416 172.699 84.7999C170.186 87.943 166.433 87.8021 162.916 86.9565C162.695 89.5007 162.506 92.0595 162.854 94.5729C163.173 96.8645 159.668 97.8467 159.347 95.5389C158.91 92.3885 159.138 89.2821 159.37 86.141C159.413 85.5598 159.455 84.9773 159.494 84.3932C159.81 79.6704 159.878 74.9051 159.742 70.1749ZM199.567 82.667C196.461 84.1708 196.264 80.606 196.134 78.2473L196.121 78.013C196.054 76.8317 196.066 75.6436 196.079 74.4554V74.4551C196.096 72.8255 196.113 71.1954 195.925 69.5819C195.667 67.3736 192.148 67.3481 192.409 69.5819C192.526 70.5822 192.553 71.928 192.583 73.4276C192.62 75.3087 192.662 77.4317 192.893 79.4179L192.866 79.4303L192.866 79.4304C192.794 79.4626 192.723 79.4945 192.65 79.5408C192.331 79.744 191.936 80.0253 191.491 80.3428C189.429 81.8143 186.277 84.0624 184.398 82.9126C182.5 81.7548 182.777 78.4182 182.968 76.5685C182.992 76.3385 183.016 76.11 183.041 75.8826C183.279 73.656 183.505 71.5439 182.866 69.3249C182.244 67.166 178.851 68.0838 179.478 70.2554C179.964 71.9436 179.804 74.0013 179.64 76.0969C179.332 80.0522 179.013 84.1427 183.011 86.1391C186.428 87.8468 190.267 85.3042 193.248 83.3302C193.384 83.2395 193.519 83.1501 193.653 83.0623C194.709 86.1405 196.862 87.8547 201.342 85.6858C203.376 84.7016 201.596 81.6856 199.567 82.667ZM161.562 120.917C161.49 122.527 163.674 124.064 164.66 122.374C165.204 121.443 166.628 122.291 166.083 123.223C164.656 125.666 161.794 124.941 160.533 122.991C159.925 124.768 158.382 125.96 155.977 124.871C155.007 124.433 155.847 122.984 156.808 123.419C160.019 124.872 160.252 117.615 156.611 118.478C155.576 118.723 155.14 117.1 156.172 116.855C158.417 116.323 159.828 117.465 160.454 119.065C161.414 117.181 163.441 115.468 164.683 117.747C165.199 118.694 163.775 119.543 163.26 118.596C163.207 118.498 163.18 118.429 163.163 118.383C163.155 118.365 163.15 118.35 163.145 118.34C163.139 118.327 163.133 118.32 163.126 118.319C163.12 118.317 163.113 118.319 163.103 118.325C163.097 118.329 163.09 118.333 163.083 118.339C163.075 118.345 163.067 118.352 163.057 118.36L163.055 118.361L163.055 118.361L163.055 118.361C163.03 118.382 162.996 118.409 162.95 118.442C162.681 118.634 162.468 118.951 162.289 119.223C161.974 119.706 161.589 120.319 161.562 120.917ZM152.359 117.72C151.666 119.476 150.84 121.154 149.911 122.779C148.726 121.606 147.991 120.067 147.271 118.56C147.118 118.239 146.965 117.919 146.809 117.605C146.334 116.649 144.901 117.487 145.374 118.442C145.519 118.733 145.661 119.029 145.804 119.326C146.661 121.105 147.54 122.929 149.043 124.239C148.588 124.969 148.115 125.689 147.624 126.401C147.583 126.461 147.527 126.543 147.46 126.643L147.46 126.644C146.945 127.409 145.743 129.198 144.964 129.541C144.851 129.214 144.539 128.968 144.179 128.968H143.68C143.032 128.968 142.667 129.668 142.962 130.217C144.417 132.922 146.896 130.268 148.013 128.745C150.425 125.458 152.465 121.955 153.963 118.162C154.355 117.168 152.746 116.737 152.359 117.72ZM175.072 121.89C175.026 120.663 174.942 119.439 174.784 118.22C174.637 117.099 176.373 117.114 176.517 118.22C176.851 120.787 176.863 123.377 176.863 125.962C176.863 127.095 175.13 127.093 175.13 125.962C175.13 125.192 175.127 124.423 175.118 123.653C174.453 123.573 173.784 123.527 173.116 123.482L173.115 123.482C172.432 123.435 171.748 123.388 171.069 123.305C171.073 123.42 171.076 123.535 171.08 123.65L171.092 123.978L171.092 123.978C171.115 124.642 171.138 125.305 171.143 125.962C171.154 127.095 169.419 127.092 169.41 125.962C169.405 125.314 169.385 124.663 169.366 124.012C169.353 123.583 169.34 123.154 169.332 122.725C169.222 122.505 169.228 122.232 169.323 121.988C169.315 120.405 169.4 118.826 169.787 117.283C170.062 116.184 171.734 116.653 171.46 117.75C171.148 118.992 171.054 120.262 171.042 121.54C171.785 121.648 172.534 121.696 173.282 121.744C173.88 121.783 174.478 121.821 175.072 121.89ZM143.16 122.365C142.761 121.409 141.133 121.825 141.538 122.795C142.014 123.936 140.423 123.411 139.839 123.089C139.38 122.836 139.008 122.466 138.639 122.1L138.638 122.099C138.475 121.937 138.312 121.776 138.143 121.625C137.932 121.438 137.718 121.277 137.502 121.128C138.683 120.364 139.417 119.067 139.33 117.438C139.274 116.399 137.592 116.393 137.648 117.438C137.743 119.206 136.589 120.2 134.907 120.259C134.957 119.423 135.01 118.586 135.13 117.754C135.275 116.734 133.657 116.292 133.51 117.323C133.379 118.231 133.325 119.149 133.27 120.067C133.187 121.484 133.103 122.901 132.738 124.279C132.468 125.291 134.089 125.723 134.358 124.712C134.606 123.781 134.722 122.838 134.797 121.891C136.008 121.972 136.865 122.696 137.739 123.433C138.547 124.115 139.369 124.808 140.495 125.016C142.353 125.359 143.946 124.249 143.16 122.365ZM31.6496 121.021C31.6118 122.391 34.1286 123.162 34.8703 122.061C35.4044 121.266 34.9792 119.785 34.4581 119.091C33.6003 117.945 32.4377 118.531 31.6031 119.339C31.548 119.549 31.4261 119.743 31.2548 119.875C31.2548 119.943 31.2544 120.01 31.2541 120.077L31.2541 120.078C31.2537 120.146 31.2533 120.214 31.2533 120.282C31.4885 120.411 31.6583 120.655 31.6496 121.021ZM31.757 117.066C32.7759 116.504 33.9211 116.504 34.8935 117.168C36.4204 118.21 37.1505 120.52 36.6004 122.32C35.8819 124.672 32.8862 124.768 31.1721 123.452L31.1678 123.55L31.1604 123.726C31.1505 123.962 31.1407 124.197 31.1271 124.432C31.0966 124.972 31.0457 125.517 30.9945 126.063C30.863 127.469 30.7301 128.889 30.9413 130.278C31.1096 131.385 29.4768 131.859 29.307 130.745C29.0642 129.144 29.192 127.561 29.3208 125.966L29.3208 125.965C29.3483 125.625 29.3759 125.283 29.3999 124.941C29.5682 122.531 29.6074 120.095 29.5305 117.682C29.4986 116.644 30.9093 116.563 31.1793 117.42C31.3898 117.278 31.5915 117.158 31.757 117.066ZM46.7151 117.74C45.9912 119.558 45.1272 121.296 44.156 122.979C42.9173 121.764 42.1479 120.169 41.3947 118.607L41.3944 118.606C41.2347 118.275 41.0757 117.945 40.9131 117.621C40.4185 116.631 38.9185 117.499 39.413 118.487C39.5642 118.789 39.713 119.096 39.8624 119.403C40.7587 121.246 41.6771 123.135 43.2488 124.492C42.7736 125.248 42.2791 125.994 41.7651 126.731C41.7223 126.792 41.6647 126.877 41.5949 126.98L41.5941 126.981L41.5935 126.982C41.0559 127.775 39.7993 129.627 38.984 129.982C38.8664 129.644 38.5401 129.389 38.1633 129.389H37.6419C36.9641 129.389 36.5828 130.115 36.8911 130.683C38.412 133.484 41.004 130.736 42.1718 129.159C44.6937 125.754 46.8269 122.126 48.3924 118.198C48.8021 117.168 47.1203 116.722 46.7151 117.74ZM56.9474 121.545C56.7656 121.763 56.5602 121.945 56.3396 122.098C56.9655 122.396 57.5054 122.803 57.8371 123.376C58.4005 124.345 57.9925 125.388 57.2195 126.088C55.3986 127.742 51.9733 127.869 50.609 125.603C50.0664 124.702 51.4681 123.883 52.008 124.778C52.8005 126.095 54.8781 125.84 55.9579 125.02C57.8089 123.615 53.3605 122.943 52.5166 122.816L52.4757 122.81C51.5639 122.671 51.7971 121.166 52.6922 121.208C53.5374 121.247 57.2583 120.832 55.7428 119.15C55.3125 118.672 53.3584 117.901 52.8033 118.482C52.0788 119.241 50.9352 118.085 51.6569 117.328C53.042 115.876 56.3992 117.013 57.3277 118.527C57.9106 119.478 57.6386 120.723 56.9474 121.545ZM70.6681 122.089C70.459 122.411 70.0331 122.904 69.5685 122.835C69.0679 122.76 69.0216 122.161 69.0007 121.765C69.047 121.62 69.0425 121.481 68.9962 121.355C69.0098 120.759 69.1141 120.165 69.2182 119.572L69.2182 119.571C69.2968 119.123 69.3754 118.676 69.4146 118.229C69.5102 117.152 67.7651 117.158 67.6709 118.229C67.6353 118.627 67.5574 119.064 67.4764 119.519L67.4764 119.519C67.3707 120.112 67.2598 120.735 67.2302 121.34C66.3845 122.332 64.5198 123.392 63.2349 123.044C61.8912 122.681 62.2639 120.674 62.5416 119.179C62.6301 118.702 62.7089 118.278 62.7194 117.975C62.7567 116.893 61.0116 116.895 60.9743 117.975C60.9588 118.425 60.8915 118.936 60.821 119.47C60.5452 121.561 60.221 124.019 62.7717 124.664C64.3734 125.07 66.2276 124.366 67.5932 123.303C67.6978 123.49 67.8218 123.668 67.9802 123.832C69.304 125.203 71.3046 124.28 72.1742 122.936C72.7689 122.015 71.2598 121.171 70.6681 122.089ZM80.6705 121.89C80.6245 120.663 80.5384 119.44 80.381 118.22C80.2355 117.099 81.9697 117.114 82.1137 118.22C82.4478 120.787 82.4597 123.377 82.4611 125.961C82.4611 127.095 80.727 127.094 80.727 125.961C80.727 125.192 80.724 124.422 80.7151 123.653C80.0494 123.574 79.3812 123.528 78.7134 123.482C78.0301 123.435 77.3472 123.388 76.6676 123.305C76.6704 123.398 76.6734 123.491 76.6764 123.584L76.6843 123.825L76.6913 124.033L76.6916 124.041L76.6918 124.048C76.7135 124.688 76.735 125.327 76.7404 125.961C76.7508 127.095 75.0166 127.092 75.0077 125.961C75.0024 125.329 74.9838 124.695 74.9651 124.059V124.059V124.058V124.058V124.058V124.057C74.9521 123.614 74.939 123.169 74.9305 122.725C74.8191 122.505 74.8251 122.232 74.9216 121.988C74.9142 120.406 74.9973 118.826 75.3848 117.283C75.661 116.184 77.3313 116.653 77.0567 117.75C76.7449 118.99 76.6513 120.262 76.6409 121.54C77.3834 121.648 78.1318 121.696 78.8806 121.744C79.478 121.783 80.0756 121.821 80.6705 121.89ZM90.7322 117.514C87.9866 115.334 83.8346 117.577 83.4963 121.25C83.1524 124.974 87.3239 128.815 90.0807 125.62C90.8063 124.779 89.6543 123.499 88.9274 124.343C87.0877 126.473 84.6021 123.058 85.2158 120.88C85.8225 118.728 88.2648 117.769 89.9088 119.075C90.7629 119.753 91.5793 118.186 90.7322 117.514ZM101.578 124.865C101.897 124.853 102.065 124.679 102.085 124.346C101.589 123.377 103.038 122.522 103.535 123.491C104.488 125.348 102.445 126.966 100.683 126.616C99.7234 126.426 99.148 125.781 98.7855 124.897C98.7103 124.712 98.6484 124.529 98.5877 124.35C98.4197 123.853 98.2601 123.381 97.8491 122.974C97.1816 122.314 96.2092 122.008 95.313 121.761C95.1721 123.287 95.1893 124.793 95.8108 126.034C96.2984 127.007 94.8484 127.864 94.3608 126.889C93.3398 124.851 93.6037 122.48 93.859 120.186V120.186C93.962 119.261 94.0635 118.349 94.0788 117.476C94.0975 116.384 95.7762 116.384 95.7575 117.476C95.7431 118.256 95.6338 119.113 95.5202 119.996C96.6969 119.858 99.7277 119.11 99.3135 117.871C98.9668 116.833 100.589 116.391 100.933 117.419C101.539 119.232 99.9306 120.435 98.1526 121.095C98.6417 121.392 99.0847 121.756 99.4386 122.218C99.7893 122.673 99.964 123.164 100.152 123.694L100.185 123.787C100.21 123.857 100.231 123.939 100.253 124.024C100.302 124.213 100.355 124.418 100.458 124.545C100.799 124.995 101.173 125.101 101.578 124.865ZM31.1693 110.665C32.2192 110.88 32.6684 109.189 31.6127 108.973C28.6876 108.373 25.8183 108.334 23.0005 109.192C22.6744 108.891 22.1237 108.815 21.8333 109.197C21.6574 109.428 21.4814 109.66 21.3055 109.89C20.9851 110.311 21.0895 111.044 21.4829 111.316C21.3911 112.917 21.3664 114.528 21.3417 116.139C21.2897 119.525 21.2377 122.914 20.5631 126.221C20.3386 127.323 21.9477 127.794 22.1737 126.687C22.8707 123.269 22.9321 119.778 22.9935 116.287C23.0247 114.513 23.056 112.738 23.1707 110.973C25.7911 110.123 28.4245 110.102 31.1693 110.665ZM107.952 125.024C107.959 125.029 107.967 125.034 107.977 125.041C108.364 125.31 109.479 124.67 109.873 124.443L109.919 124.416L109.947 124.4C110.121 124.3 110.309 124.191 110.492 124.069C110.126 123.795 109.478 123.956 109.102 124.086C108.856 124.171 108.627 124.284 108.42 124.458C108.328 124.535 107.97 124.872 107.957 124.971C107.954 124.997 107.947 125.009 107.938 125.015C107.942 125.018 107.947 125.021 107.952 125.024ZM110.965 117.187C112.668 118.397 112.804 120.878 112.732 123.167C112.934 123.415 112.998 123.769 112.763 124.131C112.741 124.167 112.714 124.199 112.689 124.233L112.681 124.419L112.681 124.419C112.659 124.889 112.639 125.336 112.635 125.745C112.623 126.894 111.075 126.902 111.06 125.773C110.549 126.103 110.003 126.366 109.468 126.56C108.386 126.951 106.51 127.098 106.276 125.362C106.068 123.825 107.758 122.602 108.877 122.292C109.625 122.086 110.522 122.059 111.213 122.454C111.221 121.312 111.106 120.196 110.617 119.31C109.633 117.526 107.475 118.88 106.772 120.265C106.265 121.268 104.903 120.362 105.413 119.358C106.448 117.311 109.025 115.814 110.965 117.187ZM121.272 120.703C120.848 120.814 120.169 120.926 119.88 120.885C119.78 120.871 119.68 120.845 119.583 120.816L119.572 120.813L119.572 120.813C119.564 120.811 119.558 120.809 119.55 120.806C119.542 120.803 119.537 120.801 119.528 120.797L119.528 120.797L119.522 120.795C119.507 120.79 119.453 120.758 119.412 120.734C119.403 120.727 119.392 120.718 119.382 120.709C119.373 120.702 119.365 120.694 119.357 120.686C119.335 120.659 119.306 120.61 119.292 120.574L119.279 120.52C119.274 120.502 119.271 120.487 119.269 120.479C119.265 120.445 119.261 120.439 119.26 120.442V120.404C119.26 120.34 119.26 120.28 119.262 120.218C119.262 120.195 119.261 120.185 119.26 120.182C119.264 120.167 119.269 120.146 119.276 120.116C119.295 120.029 119.318 119.942 119.342 119.856C119.357 119.801 119.366 119.766 119.372 119.742C119.378 119.715 119.382 119.702 119.387 119.69C119.391 119.679 119.397 119.669 119.409 119.65C119.422 119.628 119.442 119.594 119.475 119.533C119.688 119.141 119.725 119.086 120.039 118.769C120.09 118.717 120.117 118.688 120.136 118.668C120.149 118.655 120.158 118.646 120.168 118.638C120.184 118.625 120.202 118.614 120.242 118.591C120.263 118.579 120.289 118.563 120.325 118.542C120.403 118.494 120.482 118.446 120.566 118.405L120.575 118.4C120.58 118.397 120.583 118.395 120.588 118.392L120.599 118.389L120.599 118.389C120.607 118.387 120.616 118.384 120.627 118.381C120.951 118.275 121.066 118.257 121.307 118.347C121.287 118.467 121.297 118.602 121.354 118.752C121.575 119.329 121.598 120.023 121.602 120.684C121.501 120.669 121.391 120.672 121.272 120.703ZM121.044 116.657C120.217 116.647 119.438 117.073 118.856 117.656C117.823 118.691 117.044 120.762 118.323 121.933C118.524 122.118 118.75 122.25 118.99 122.345C118.915 122.5 118.839 122.663 118.761 122.829C118.098 124.249 117.307 125.94 115.942 125.643C114.94 125.426 114.511 127.013 115.519 127.232C117.901 127.748 118.881 125.876 119.837 124.049L119.837 124.049C120.123 123.503 120.406 122.961 120.725 122.489C121.034 122.446 121.338 122.383 121.623 122.31C121.639 123.246 121.643 124.183 121.643 125.12C121.645 126.179 123.243 126.182 123.243 125.12C123.243 123.801 123.243 122.48 123.198 121.161C123.192 121.001 123.189 120.834 123.187 120.664L123.187 120.663C123.179 120.21 123.171 119.729 123.115 119.268C123.123 119.264 123.13 119.261 123.138 119.258L123.142 119.256C123.15 119.253 123.159 119.249 123.167 119.244C123.506 119.045 123.716 118.47 123.454 118.117C122.852 117.314 122.075 116.67 121.044 116.657ZM182.814 120.886C183.103 120.926 183.782 120.816 184.207 120.704C184.326 120.673 184.436 120.669 184.537 120.686C184.533 120.023 184.51 119.329 184.289 118.753C184.232 118.602 184.222 118.468 184.241 118.347C184 118.257 183.885 118.275 183.562 118.382C183.55 118.386 183.541 118.388 183.533 118.39C183.529 118.392 183.526 118.392 183.522 118.393L183.5 118.405C183.469 118.42 183.438 118.437 183.407 118.454C183.357 118.483 183.308 118.513 183.259 118.543C183.156 118.604 183.127 118.618 183.103 118.638C183.078 118.659 183.058 118.685 182.973 118.77C182.66 119.086 182.623 119.141 182.409 119.535C182.347 119.647 182.331 119.668 182.321 119.691C182.312 119.714 182.309 119.739 182.276 119.856L182.271 119.877C182.249 119.957 182.228 120.037 182.211 120.117L182.21 120.118C182.204 120.146 182.198 120.168 182.194 120.182C182.195 120.185 182.196 120.191 182.197 120.203C182.197 120.207 182.197 120.212 182.197 120.217C182.194 120.281 182.194 120.342 182.194 120.404V120.443C182.195 120.441 182.197 120.442 182.199 120.451C182.2 120.457 182.202 120.466 182.204 120.48C182.206 120.494 182.217 120.536 182.227 120.576C182.241 120.611 182.269 120.66 182.291 120.687C182.299 120.695 182.308 120.702 182.316 120.709C182.327 120.719 182.338 120.728 182.346 120.735C182.387 120.759 182.442 120.79 182.457 120.796C182.463 120.799 182.468 120.8 182.472 120.802C182.476 120.803 182.48 120.805 182.484 120.807C182.492 120.809 182.497 120.811 182.505 120.813C182.509 120.814 182.513 120.816 182.519 120.817C182.614 120.847 182.714 120.872 182.814 120.886ZM183.978 116.657C185.009 116.67 185.787 117.316 186.388 118.118C186.651 118.47 186.44 119.047 186.102 119.244C186.089 119.252 186.075 119.258 186.063 119.263C186.058 119.265 186.054 119.266 186.05 119.268C186.106 119.729 186.114 120.21 186.121 120.664C186.124 120.835 186.127 121.002 186.132 121.163C186.177 122.482 186.177 123.8 186.177 125.121C186.177 126.182 184.579 126.18 184.578 125.121C184.578 124.184 184.574 123.248 184.557 122.311C184.273 122.383 183.969 122.448 183.659 122.489C183.341 122.961 183.058 123.503 182.772 124.049C181.816 125.876 180.836 127.749 178.453 127.231C177.446 127.014 177.874 125.426 178.876 125.644C180.242 125.941 181.033 124.248 181.696 122.828C181.774 122.662 181.85 122.5 181.924 122.345C181.685 122.25 181.459 122.119 181.258 121.934C179.979 120.763 180.758 118.693 181.79 117.656C182.372 117.073 183.151 116.647 183.978 116.657Z" fill="black" fill-opacity="0.85"/>
</g>
<defs>
<clipPath id="clip0">
<rect width="202" height="131.498" fill="white" transform="translate(0.240112 0.390137)"/>
</clipPath>
</defs>
</svg>
