<?xml version="1.0" encoding="UTF-8"?>
<svg width="264px" height="39px" viewBox="0 0 264 39" version="1.1" xmlns="http://www.w3.org/2000/svg" xmlns:xlink="http://www.w3.org/1999/xlink">
    <title>Group 4</title>
    <g id="Page-1" stroke="none" stroke-width="1" fill="none" fill-rule="evenodd">
        <g id="1920x1080-Оформление-заказа" transform="translate(-828.000000, -159.000000)" fill="#000000">
            <g id="logo-vert" transform="translate(828.000000, 71.000000)">
                <g id="Group-4" transform="translate(0.000000, 88.615385)">
                    <path d="M172.557385,18.6835315 C169.256639,24.6240421 162.80993,18.3101598 163.403909,13.5306308 C163.628344,11.7176419 164.71376,9.85078351 165.685022,8.3182878 C166.159045,7.56968687 166.871047,6.2619572 167.720418,5.85143411 C168.302789,5.56908338 167.879071,5.53750469 168.436289,6.61861075 C169.804183,9.2712215 173.938822,6.94368559 172.572863,4.29664756 C168.898703,-2.82527794 162.980191,2.99263303 160.180554,8.57834768 C158.383138,3.66878871 153.987302,0.0390958489 146.822787,1.63846409 C143.819999,2.30718949 145.093088,6.74306797 148.095877,6.072485 C159.72588,3.47931651 158.975182,25.2166071 148.668574,20.8290255 C145.874742,19.6420379 143.433041,23.6023783 146.250091,24.8005113 C153.50941,27.8915087 158.199333,24.5980361 160.122511,19.5955986 C163.624475,25.753445 172.294254,28.9224604 176.695893,21.0054947 C178.146983,18.3937505 174.012344,16.0680721 172.557385,18.6835315" id="Fill-13"></path>
                    <path d="M198.284177,2.58849665 C196.54951,7.0105262 194.495298,11.2296401 192.195723,15.3166674 C188.676935,11.6795003 186.74065,6.74252441 184.526667,2.23626572 C183.183821,-0.497352545 179.119145,1.90126348 180.460089,4.62913886 C183.027853,9.85517378 185.327429,15.557869 189.734473,19.5070669 C188.623677,21.3084218 187.46533,23.0848908 186.263236,24.8422168 C185.409217,26.0922537 181.856192,31.6188335 179.723996,32.8037843 C179.341685,32.0036075 178.527608,31.429318 177.605115,31.429318 L176.330743,31.429318 C174.504777,31.429318 173.449141,33.4297599 174.297454,34.9956561 C182.069221,49.3509806 201.270392,7.81453157 202.826267,3.84810507 C203.938965,1.00920038 199.385463,-0.22169356 198.284177,2.58849665" id="Fill-15"></path>
                    <path d="M21.114594,16.9989012 C18.5686024,20.0413577 12.6201695,21.2819893 8.91213135,19.8161296 C6.11893723,18.7125118 4.78754715,16.2950634 4.82258373,13.496604 C4.85178088,11.2912453 5.64788986,7.50553601 7.75981712,6.06219915 C14.4751619,6.78105223 26.2980616,10.8070049 21.114594,16.9989012 M9.48244903,1.34930076 C8.9997228,1.0565042 8.39826149,0.91573663 7.69752987,1.0527504 C7.46395266,1.09779603 7.2342684,1.15597996 7.01042358,1.22167149 C6.23767231,1.22542529 5.47854639,1.26296331 4.74667114,1.35493146 C2.95591254,1.57640578 2.21625138,3.28626258 2.53936652,4.57381666 C-0.504923098,8.87567374 -0.839717096,15.9102987 1.68486323,19.8142527 C5.7452137,26.0906096 15.0746767,26.1187632 21.1613094,22.822925 C27.0221509,19.6472085 29.2022048,12.8115351 24.2698328,7.8565165 C20.7681211,4.34108094 14.9423163,1.91612486 9.48244903,1.34930076" id="Fill-17"></path>
                    <path d="M109.780859,20.1581185 C106.016583,20.4211834 100.702969,20.2607325 98.6297272,16.4322993 C96.2991947,12.1281106 98.9187132,5.08133082 104.379617,5.96567649 C107.286257,6.43583495 108.537287,1.98425526 105.606409,1.51036538 C98.2549776,0.320043574 93.3906902,5.75298576 93.2639092,12.5385664 C93.1240773,12.6001347 92.9842453,12.6784945 92.8444134,12.777377 C91.984913,13.3930607 91.1552434,14.0441929 90.3684556,14.7326392 C90.5418473,11.4116786 90.9091392,8.09818092 91.1794809,4.77348897 C91.4181275,1.80887869 86.807402,1.82753577 86.5631622,4.77348897 C86.3711263,7.0888328 84.929925,9.2586514 83.1326184,10.8239806 C81.279379,4.89102858 73.1337018,-1.62589004 67.4266939,2.08686921 C64.9451429,3.70257248 67.2551667,7.7045165 69.7572263,6.07761898 C73.1467528,3.87235192 78.7157932,10.12434 78.9096935,13.2773868 C79.2546123,18.8577199 72.3357275,21.0126129 67.9002581,20.3670778 C64.9936179,19.9435621 63.7388593,24.3951418 66.6716013,24.8223889 C73.2138721,25.7720344 81.4527706,22.9100381 83.205331,16.3203568 C83.3526206,16.268117 83.5036392,16.2028172 83.6546577,16.1151289 C84.3911059,15.686016 85.0958589,15.1934691 85.7577302,14.6486823 C85.6402713,16.8632779 85.6048472,19.0816049 85.7502725,21.3111262 C85.88824,23.4081821 88.973865,24.6973865 90.0515032,22.4771938 C91.0172759,20.4902146 92.4323752,18.9304825 94.112223,17.5797098 C96.493095,23.5145275 103.710288,25.2029934 109.780859,24.7794776 C112.728517,24.572384 112.75089,19.9510249 109.780859,20.1581185" id="Fill-19"></path>
                    <path d="M42.4471144,6.29344746 C44.601839,4.95769424 47.4949488,5.59801975 50.1217866,6.12244065 C49.9442721,9.17586231 49.5722469,12.1779819 49.764869,15.2314036 C47.1758002,15.3815096 44.5886199,15.5810175 41.9995511,15.742524 C42.3319188,12.6016988 42.4282299,9.45897359 42.4471144,6.29344746 M57.4791988,15.0603968 C56.4462151,15.0318956 55.4132314,15.0299956 54.3821362,15.0451962 C54.0233301,11.4407526 54.8127034,7.76790621 54.8806877,4.16726274 C54.9071261,2.80870861 53.7834966,1.93467379 52.5427831,1.81496902 C47.8273165,1.36085092 43.5669669,-0.128808432 39.5766661,2.59970028 C38.6135552,2.79730816 37.7769706,3.52883731 37.7750821,4.81138841 C37.7750821,8.52793649 37.7769706,12.2634853 37.3124112,15.9553324 C35.977275,15.9914339 34.6402504,16.0066345 33.3013374,15.968633 C31.6734911,15.9211311 30.7802529,17.5019941 31.0465247,18.9460516 C31.5847338,21.8569676 31.5677377,24.8248858 31.9208784,27.7605028 C32.2796844,30.7284211 36.9592705,30.7645225 36.5966876,27.7605028 C36.3134196,25.4006088 36.2152201,23.0407148 35.9716097,20.6903211 C42.4263414,20.6238185 48.8489694,19.7782848 55.3055896,19.7516837 C55.4755504,21.7486633 55.6039652,23.9128495 54.7409422,25.4842121 C53.2849451,28.1348177 57.3205688,30.5118124 58.7784543,27.8574067 C60.5384924,24.653879 59.9058607,20.9278306 59.8171034,17.4126905 C59.7849997,16.1149388 58.772789,15.0983983 57.4791988,15.0603968" id="Fill-21"></path>
                    <path d="M125.292943,20.3052464 C123.68264,19.9302697 121.623659,17.915948 123.631309,16.6327366 C125.766337,15.2685 129.348166,16.6233151 132.074463,17.7727409 C132.055451,18.162792 132.032637,18.552843 132.009823,18.9410098 C132.004119,18.9428941 131.998415,18.9428941 131.990811,18.9447784 C129.928027,19.4648465 127.439378,20.8045871 125.292943,20.3052464 M136.827421,15.5360713 C136.926282,10.6877554 136.464295,5.75087718 132.947106,2.33463283 C128.460314,-2.02376384 121.846098,0.165798172 119.10269,5.23080909 C117.671099,7.87637283 121.732027,10.2355223 123.16742,7.58618991 C125.648464,3.00544529 130.146663,4.39794643 131.4908,9.02014576 C131.859629,10.29582 132.034538,11.6186019 132.112486,12.9639954 C126.882332,11.2775427 119.859361,10.1055052 118.178715,16.4103886 C117.374515,19.430929 119.399275,22.4703124 121.952564,23.9589131 C125.317658,25.9223585 128.772108,24.6787175 132.203743,23.7214907 C133.272208,25.3985218 136.546046,24.9933963 136.572662,22.4853868 C136.587872,20.9459099 136.686733,19.2952591 136.760879,17.6069221 C137.046057,16.9813329 137.085982,16.2106523 136.827421,15.5360713" id="Fill-23"></path>
                    <path d="M221.820827,19.1816464 C219.637744,22.0569184 216.171704,21.1704558 213.213618,20.3355762 C213.407836,16.5700205 213.504945,12.7930019 213.50868,9.01789388 C214.778565,4.53017685 221.025281,7.79709729 222.623843,10.6895637 C223.960957,13.1139625 223.46981,17.0113413 221.820827,19.1816464 M213.329402,2.61205514 C212.6347,0.265985955 208.73914,0.474228252 208.817574,3.27881259 C208.989382,9.43437847 208.903478,15.6357959 208.50197,21.7818094 C208.186366,26.6497119 207.656002,31.4278218 208.315222,36.2861719 C208.722333,39.2894462 213.178136,38.0113352 212.772894,35.0290762 C212.330301,31.7583348 212.571206,28.4283686 212.851328,25.1175071 C217.322071,26.2179434 222.093479,26.4013495 225.286867,22.3110123 C228.194531,18.5913081 228.963932,12.4987881 226.616512,8.30146396 C224.145837,3.88634516 217.774001,1.01489403 213.329402,2.61205514" id="Fill-25"></path>
                    <path d="M260.489358,19.6307081 C256.271869,21.6996185 256.137625,16.5602271 255.962363,13.4371308 C255.753539,9.708958 256.132032,5.930049 255.705062,2.21690919 C255.365724,-0.722033464 250.74364,-0.755857612 251.086707,2.21690919 C251.433503,5.21786277 251.176203,10.5564408 251.7225,15.3068545 C251.616224,15.3557116 251.511812,15.4008105 251.403671,15.4703379 C249.035762,16.9943037 243.565332,21.818003 240.563494,19.9576749 C238.070663,18.416797 238.43424,13.976438 238.685947,11.5147917 C239.021556,8.21129988 239.476493,5.12954416 238.551703,1.87490947 C237.735054,-0.998264007 233.277045,0.223163565 234.101152,3.11324911 C235.945138,9.59996908 230.70777,20.1869274 238.741882,24.2514626 C243.436681,26.6285485 248.737442,22.8176945 252.720005,20.1568615 C254.10719,24.2533417 256.935629,26.5345926 262.819977,23.6482653 C265.4918,22.3385191 263.153722,18.3247202 260.489358,19.6307081" id="Fill-27"></path>
                </g>
            </g>
        </g>
    </g>
</svg>